<svg xmlns="http://www.w3.org/2000/svg" preserveAspectRatio="xMidYMid" width="25" height="25"><path d="M24.68 23.211l-6.007-6.007a10.491 10.491 0 0 0 2.387-6.675C21.06 4.716 16.343 0 10.53 0 4.712 0 0 4.716 0 10.529c0 5.814 4.712 10.53 10.53 10.53 2.534 0 4.854-.892 6.67-2.381l6.006 6.002a1.04 1.04 0 0 0 1.474-1.469zm-14.15-4.248c-4.656 0-8.439-3.783-8.439-8.434 0-4.65 3.783-8.439 8.439-8.439 4.65 0 8.439 3.789 8.439 8.439 0 4.651-3.789 8.434-8.439 8.434z" fill-rule="evenodd" fill="#2e2e2e" opacity=".4"/></svg>