<svg xmlns="http://www.w3.org/2000/svg" preserveAspectRatio="xMidYMid" width="1372" height="60"><defs><style>.cls-3{fill:#fff}</style></defs><g id="slider-btnssvg"><path d="M30 60C13.431 60 0 46.568 0 30 0 13.431 13.431 0 30 0c16.569 0 30 13.431 30 30 0 16.568-13.431 30-30 30zm0-57.406C14.864 2.594 2.594 14.864 2.594 30S14.864 57.406 30 57.406 57.406 45.136 57.406 30 45.136 2.594 30 2.594zm4.453 40.988a1.109 1.109 0 0 1-1.574 0L20.55 31.197c-.082-.082-.134-.182-.185-.28-.014-.013-.033-.017-.046-.031a1.128 1.128 0 0 1 0-1.59l12.398-12.454a1.116 1.116 0 0 1 1.583 0 1.128 1.128 0 0 1 0 1.59L22.645 30.14l11.808 11.861a1.12 1.12 0 0 1 0 1.581z" id="path-1" class="cls-3" fill-rule="evenodd"/><path d="M1342 60c-16.569 0-30-13.432-30-30 0-16.569 13.431-30 30-30 16.569 0 30 13.431 30 30 0 16.568-13.431 30-30 30zm0-57.406c-15.136 0-27.406 12.27-27.406 27.406s12.27 27.406 27.406 27.406 27.406-12.27 27.406-27.406S1357.136 2.594 1342 2.594zm9.635 28.323c-.051.098-.103.198-.186.28l-12.329 12.385a1.109 1.109 0 0 1-1.574 0 1.123 1.123 0 0 1 0-1.581l11.809-11.861-11.655-11.708a1.128 1.128 0 0 1 0-1.59 1.115 1.115 0 0 1 1.582 0l12.399 12.454a1.128 1.128 0 0 1 0 1.59c-.014.014-.032.018-.046.031z" id="path-2" class="cls-3" fill-rule="evenodd"/></g></svg>